<svg width="169" height="169" viewBox="0 0 169 169" fill="none" xmlns="http://www.w3.org/2000/svg">
<path d="M84.5 169C131.168 169 169 131.168 169 84.5C169 37.8319 131.168 0 84.5 0C37.8319 0 0 37.8319 0 84.5C0 131.168 37.8319 169 84.5 169Z" fill="#6C63FF"/>
<path d="M109.492 42.4735C109.492 41.6599 108.914 40.9599 108.114 40.8091L72.5203 34.0294C72.022 33.9362 71.5102 34.0667 71.122 34.3888C70.7339 34.7108 70.5085 35.1888 70.5085 35.6938V39.0837H50.1695C49.2322 39.0837 48.4746 39.843 48.4746 40.7786V125.524H40V128.914H50.1695H70.5085V132.304C70.5085 132.796 70.722 133.262 71.0932 133.584C71.4017 133.853 71.7966 133.999 72.2034 133.999C72.2831 133.999 72.3644 133.994 72.4441 133.982L107.915 128.914H121.356V125.524H109.492V42.4735ZM51.8644 125.524V42.4735H70.5085V125.524H51.8644ZM106.102 125.748L73.8983 130.348V127.219V40.7786V37.7413L106.102 43.8752V125.748Z" fill="white"/>
<path d="M82.3728 81.4565H77.2881V84.8464H82.3728V81.4565Z" fill="white"/>
<path d="M129.744 93.8176C129.081 93.1548 128.01 93.1548 127.347 93.8176L123.051 98.1159V72.7565H119.661V98.1142L115.364 93.8176C114.702 93.1548 113.63 93.1548 112.968 93.8176C112.305 94.4803 112.305 95.5515 112.968 96.2142L120.158 103.406C120.476 103.724 120.905 103.902 121.356 103.902C121.807 103.902 122.237 103.724 122.554 103.406L129.744 96.2142C130.407 95.5515 130.407 94.4786 129.744 93.8176Z" fill="white"/>
</svg>
