<?xml version="1.0" encoding="utf-8"?>
<!-- Generator: Adobe Illustrator 26.0.0, SVG Export Plug-In . SVG Version: 6.00 Build 0)  -->
<svg version="1.1" id="Capa_1" xmlns="http://www.w3.org/2000/svg" xmlns:xlink="http://www.w3.org/1999/xlink" x="0px" y="0px"
	 viewBox="0 0 100 100" style="enable-background:new 0 0 100 100;" xml:space="preserve">
<style type="text/css">
	.st0{fill:#1877F2;}
	.st1{fill:#0064B0;}
	.st2{fill:#F1F1F1;}
	.st3{fill:#D1D1D1;}
</style>
<path class="st0" d="M50,0c-62,1.8-68.3,88.8-7.9,100H50h7.9C118.3,88.8,112,1.8,50,0z"/>
<path class="st1" d="M72.7,33.5c-0.3-0.2-0.8-0.6-1.2-1.2c-2.1-2.4-1.2-4.2-2.8-6.4c-1.4-1.9-3.6-2.6-4.7-2.9
	c-1.4-0.5-2.7-0.5-3.9-0.6c-0.5,0-1.7-0.1-3.6,0.1c-1.6,0.2-3.8,0.4-5.6,1c-2.4,0.8-4,2.2-6.1,4.4c0,0-10,10.1-15,21.7
	c-0.2,0.4-0.3,0.8-0.3,0.8c-0.2,0.8-0.1,1.3,0,1.9c0,0,0,0,0,2.2c0,0.3,0,3.3,0,3.3c0,2.5,0,3.8,0,4.5c0,0.3,0,1.1,0,1.5
	c0,0.4,0,0.6,0,0.6c0,0.2,0,0.3,0,0.5c0,0.1,0,0.3,0.1,0.4c0,0.2,0.1,0.5,0.2,0.8c1.8,7.5,4.1,12,7.2,20.4c1.2,3.2,2.1,5.7,3.9,10.3
	c0.6,1.4,1.1,2.6,1.4,3.4c0.3,0,4.2,0,4.5,0c7.6,0,9.6,0,9.9,0c3.9,0,17.2-1.9,28.3-12.2c12.4-11.4,14.2-26.1,14.6-29.9L72.7,33.5z"
	/>
<path class="st2" d="M57.9,64.8h11.7l2.2-14.5H57.9v-9.4c0-4,1.9-7.9,8.2-7.9h6.3V20.6c-13.6-2.4-29.9-1.7-30.2,18.6v11.1H29.4v14.5
	h12.8c0,0,0,35.2,0,35.2H50h7.9V64.8z"/>
<polygon class="st3" points="42.1,100 57.9,40.6 57.9,50.3 71.8,50.3 69.6,64.8 57.9,64.8 57.9,100 "/>
</svg>
