<svg width="200" height="255" viewBox="0 0 200 255" fill="none" xmlns="http://www.w3.org/2000/svg">
<path d="M45.9449 237.872L49.0489 227.952L48.0569 225.2L45.5929 224.56C45.5289 224.155 45.5822 223.781 45.7529 223.44C47.6729 223.547 49.1342 223.6 50.1369 223.6C51.0755 223.6 52.5369 223.547 54.5209 223.44C54.5849 223.845 54.5635 224.219 54.4569 224.56C54.3289 224.581 54.1155 224.613 53.8169 224.656C53.5395 224.699 53.3155 224.741 53.1449 224.784C52.9742 224.805 52.7609 224.859 52.5049 224.944C52.2702 225.008 52.0569 225.093 51.8649 225.2L55.8329 237.616C56.5795 239.941 57.0382 241.605 57.2089 242.608H57.2729C57.5075 241.285 57.9022 239.621 58.4569 237.616L61.7209 225.2L58.9369 224.56C58.8729 224.155 58.9262 223.781 59.0969 223.44C60.8035 223.547 62.0089 223.6 62.7129 223.6C63.4595 223.6 64.6009 223.547 66.1369 223.44C66.2009 223.845 66.1795 224.219 66.0729 224.56C64.8782 224.773 64.0035 224.987 63.4489 225.2L57.5289 246.64C57.1662 246.811 56.6222 246.917 55.8969 246.96L49.9449 230.416L44.7289 246.64C44.4089 246.811 43.9075 246.917 43.2249 246.96L36.1529 225.2L33.6889 224.56C33.6249 224.155 33.6782 223.781 33.8489 223.44C35.7689 223.547 37.2302 223.6 38.2329 223.6C39.1715 223.6 40.6329 223.547 42.6169 223.44C42.6809 223.867 42.6595 224.24 42.5529 224.56C41.5502 224.667 40.6542 224.88 39.8649 225.2L43.2249 237.776C43.9502 240.4 44.3769 242.128 44.5049 242.96H44.5689C44.7822 241.595 45.2409 239.899 45.9449 237.872ZM68.3416 237.36V238C68.3416 240.133 68.7683 241.797 69.6216 242.992C70.4963 244.187 71.6803 244.784 73.1736 244.784C74.1336 244.784 74.9016 244.699 75.4776 244.528C76.0536 244.336 76.779 243.941 77.6536 243.344C77.995 243.493 78.187 243.749 78.2296 244.112C76.7576 245.712 75.0403 246.523 73.0776 246.544C70.6243 246.544 68.6616 245.776 67.1896 244.24C65.7176 242.704 64.971 240.624 64.9496 238C64.971 235.312 65.739 233.221 67.2536 231.728C68.7896 230.213 70.6776 229.456 72.9176 229.456C74.731 229.456 76.107 230.075 77.0456 231.312C78.0056 232.528 78.4856 234.181 78.4856 236.272C78.4856 236.635 78.475 236.912 78.4536 237.104L78.0056 237.456L68.3416 237.36ZM72.8856 230.832C71.883 230.832 70.955 231.291 70.1016 232.208C69.2696 233.104 68.7256 234.384 68.4696 236.048L75.4456 235.664C75.4456 233.957 75.2536 232.731 74.8696 231.984C74.507 231.216 73.8456 230.832 72.8856 230.832ZM85.6894 222.16V244.4L88.1534 245.04C88.2174 245.445 88.164 245.819 87.9934 246.16C86.0734 246.053 84.772 246 84.0894 246C83.4707 246 82.1694 246.053 80.1854 246.16C80.1214 245.755 80.1427 245.381 80.2494 245.04C81.444 244.741 82.1907 244.528 82.4894 244.4V224.048L79.8334 223.792C79.7694 223.365 79.8227 222.992 79.9934 222.672C81.764 222.416 83.2574 222.128 84.4734 221.808C84.836 221.829 85.2414 221.947 85.6894 222.16ZM101.027 234.672L100.611 231.28C99.9495 230.981 99.1495 230.832 98.2109 230.832C97.3789 230.832 96.6429 231.003 96.0029 231.344C95.3842 231.685 94.8615 232.176 94.4349 232.816C94.0082 233.435 93.6882 234.181 93.4749 235.056C93.2615 235.931 93.1549 236.912 93.1549 238C93.1549 240.24 93.5922 241.936 94.4669 243.088C95.3629 244.24 96.5469 244.816 98.0189 244.816C99.4055 244.816 100.878 244.315 102.435 243.312C102.712 243.461 102.904 243.739 103.011 244.144C101.432 245.744 99.5869 246.544 97.4749 246.544C96.4509 246.544 95.4695 246.352 94.5309 245.968C93.5922 245.563 92.7709 244.987 92.0669 244.24C91.3629 243.493 90.7975 242.597 90.3709 241.552C89.9655 240.507 89.7522 239.323 89.7309 238C89.7309 236.656 89.9442 235.451 90.3709 234.384C90.8189 233.317 91.4162 232.421 92.1629 231.696C92.9095 230.949 93.7949 230.384 94.8189 230C95.8429 229.616 96.9415 229.424 98.1149 229.424C99.8642 229.424 101.518 229.765 103.075 230.448C103.075 232.005 102.862 233.456 102.435 234.8C102.35 234.821 102.179 234.832 101.923 234.832C101.582 234.832 101.283 234.779 101.027 234.672ZM105.074 238C105.074 235.333 105.853 233.221 107.41 231.664C108.967 230.107 110.877 229.339 113.138 229.36C115.613 229.36 117.575 230.181 119.026 231.824C120.477 233.467 121.202 235.525 121.202 238C121.202 240.709 120.434 242.832 118.898 244.368C117.362 245.904 115.442 246.661 113.138 246.64C110.599 246.64 108.615 245.819 107.186 244.176C105.778 242.533 105.074 240.475 105.074 238ZM117.746 238.448C117.789 236.421 117.426 234.629 116.658 233.072C115.89 231.515 114.695 230.736 113.074 230.736C111.495 230.736 110.333 231.429 109.586 232.816C108.861 234.181 108.509 235.984 108.53 238.224C108.53 239.205 108.615 240.123 108.786 240.976C108.978 241.829 109.266 242.576 109.65 243.216C110.034 243.856 110.514 244.357 111.09 244.72C111.687 245.083 112.391 245.264 113.202 245.264C114.525 245.285 115.613 244.752 116.466 243.664C117.319 242.576 117.746 240.837 117.746 238.448ZM128.631 229.968L128.535 232.144L128.567 232.176C130.274 230.427 132.173 229.531 134.263 229.488C136.418 229.509 137.815 230.405 138.455 232.176C140.055 230.363 141.858 229.467 143.863 229.488C145.271 229.488 146.37 229.893 147.159 230.704C147.949 231.493 148.343 232.635 148.343 234.128L148.375 244.4L150.615 245.04C150.679 245.445 150.626 245.819 150.455 246.16C148.535 246.053 147.309 246 146.775 246C146.221 246 144.962 246.053 142.999 246.16C142.935 245.755 142.957 245.381 143.063 245.04C143.725 244.912 144.429 244.699 145.175 244.4V235.568C145.175 234.16 144.951 233.179 144.503 232.624C144.077 232.069 143.362 231.792 142.359 231.792C141.143 231.813 139.938 232.507 138.743 233.872L138.775 244.4L141.015 245.04C141.079 245.445 141.026 245.819 140.855 246.16C139.085 246.053 137.858 246 137.175 246C136.514 246 135.255 246.053 133.399 246.16C133.335 245.755 133.357 245.381 133.463 245.04C134.125 244.912 134.829 244.699 135.575 244.4V235.568C135.575 234.16 135.351 233.168 134.903 232.592C134.477 232.016 133.762 231.728 132.759 231.728C131.586 231.749 130.263 232.389 128.791 233.648V244.4L130.935 245.04C130.999 245.445 130.946 245.819 130.775 246.16C129.069 246.053 127.874 246 127.191 246C126.423 246 125.122 246.053 123.287 246.16C123.223 245.755 123.245 245.381 123.351 245.04C124.375 244.784 125.122 244.571 125.591 244.4V231.92L122.935 231.664C122.871 231.237 122.925 230.864 123.095 230.544C124.738 230.267 126.221 229.979 127.543 229.68C127.906 229.701 128.269 229.797 128.631 229.968ZM155.435 237.36V238C155.435 240.133 155.862 241.797 156.715 242.992C157.59 244.187 158.774 244.784 160.267 244.784C161.227 244.784 161.995 244.699 162.571 244.528C163.147 244.336 163.873 243.941 164.747 243.344C165.089 243.493 165.281 243.749 165.323 244.112C163.851 245.712 162.134 246.523 160.171 246.544C157.718 246.544 155.755 245.776 154.283 244.24C152.811 242.704 152.065 240.624 152.043 238C152.065 235.312 152.833 233.221 154.347 231.728C155.883 230.213 157.771 229.456 160.011 229.456C161.825 229.456 163.201 230.075 164.139 231.312C165.099 232.528 165.579 234.181 165.579 236.272C165.579 236.635 165.569 236.912 165.547 237.104L165.099 237.456L155.435 237.36ZM159.979 230.832C158.977 230.832 158.049 231.291 157.195 232.208C156.363 233.104 155.819 234.384 155.563 236.048L162.539 235.664C162.539 233.957 162.347 232.731 161.963 231.984C161.601 231.216 160.939 230.832 159.979 230.832Z" fill="white"/>
<rect width="200" height="200" rx="30" fill="white"/>
<path d="M100 21.875C56.8531 21.875 21.875 56.8531 21.875 100H178.125C178.125 56.8531 143.147 21.875 100 21.875Z" fill="#FFC865"/>
<path d="M100 178.125C143.147 178.125 178.125 143.147 178.125 100H21.875C21.875 143.147 56.8531 178.125 100 178.125Z" fill="#BE9148"/>
<path d="M143.75 112.503V177.45C143.75 178.553 143.181 179.566 142.231 180.131C141.206 180.741 139.716 181.597 137.884 182.491C116.925 192.709 84.6313 193.491 64.3 183.022L58.0281 180.041C56.9438 179.519 56.25 178.422 56.25 177.216V112.503C56.25 96.7656 63.6594 81.9437 76.25 72.5L80 69.6874C80.7875 69.0968 81.25 68.1718 81.25 67.1875V54.65C86.2281 55.6406 92.7875 56.25 100 56.25C107.213 56.25 113.772 55.6406 118.75 54.65V67.1875C118.75 68.1718 119.213 69.0968 120 69.6874L123.75 72.5C136.341 81.9437 143.75 96.7624 143.75 112.503ZM116.803 38.7468L116.084 41.7968C115.803 42.9875 114.856 43.9062 113.656 44.1468C113.656 44.1468 107.228 46.2437 100 46.2437C92.7719 46.2437 86.3437 44.1468 86.3437 44.1468C85.1437 43.9062 84.1938 42.9906 83.9156 41.7968L83.1969 38.7468C76.3375 39.8843 71.875 41.7 71.875 43.75C71.875 47.2031 84.4656 50 100 50C115.534 50 128.125 47.2031 128.125 43.75C128.125 41.7 123.662 39.8843 116.803 38.7468Z" fill="#808080"/>
<path d="M100 121.875C77.6688 121.875 62.5 118.144 62.5 113.541V173.5C62.5 178.103 79.2906 184.959 100 184.959C120.709 184.959 137.5 178.103 137.5 173.5V113.541C137.5 118.144 122.916 121.875 100 121.875Z" fill="#685683"/>
<path d="M100 121.875C120.711 121.875 137.5 118.377 137.5 114.062C137.5 109.748 120.711 106.25 100 106.25C79.2893 106.25 62.5 109.748 62.5 114.062C62.5 118.377 79.2893 121.875 100 121.875Z" fill="#8579A3"/>
<path d="M100 50C84.4656 50 71.875 47.2031 71.875 43.75V50C71.875 53.4531 84.4656 56.25 100 56.25C115.534 56.25 128.125 53.4531 128.125 50V43.75C128.125 47.2031 115.534 50 100 50Z" fill="#666666"/>
<path d="M134.913 115.847L101.831 82.7656C100.403 81.3375 99.7531 79.3094 100.084 77.3188L103.241 58.3781C103.678 55.7438 105.744 53.6813 108.378 53.2406L127.319 50.0844C129.309 49.7531 131.338 50.4031 132.766 51.8313L165.847 84.9125C168.287 87.3531 168.287 91.3094 165.847 93.75L143.75 115.847C141.309 118.288 137.353 118.288 134.913 115.847Z" fill="#EFEAE0"/>
<path d="M121.875 17.1875C121.875 19.775 112.081 21.875 100 21.875C87.9187 21.875 78.125 19.775 78.125 17.1875C78.125 14.6 87.9187 12.5 100 12.5C112.081 12.5 121.875 14.6 121.875 17.1875ZM115.625 59.375C112.172 59.375 109.375 62.1719 109.375 65.625C109.375 69.0781 112.172 71.875 115.625 71.875C119.078 71.875 121.875 69.0781 121.875 65.625C121.875 62.1719 119.078 59.375 115.625 59.375ZM115.625 68.75C113.9 68.75 112.5 67.35 112.5 65.625C112.5 63.9 113.9 62.5 115.625 62.5C117.35 62.5 118.75 63.9 118.75 65.625C118.75 67.35 117.35 68.75 115.625 68.75Z" fill="#644638"/>
<path d="M100 21.875C87.9187 21.875 78.125 19.775 78.125 17.1875L83.9156 41.7938C84.1969 42.9844 85.1437 43.9031 86.3437 44.1438C86.3437 44.1438 92.8219 46.2406 100 46.2406C107.178 46.2406 113.656 44.1438 113.656 44.1438C114.856 43.9031 115.806 42.9875 116.084 41.7938L121.875 17.1875C121.875 19.775 112.081 21.875 100 21.875Z" fill="#4B322A"/>
<path d="M121.308 147.149C121.308 134.873 111.556 123.713 99.5266 123.713C87.4974 123.713 77.7437 134.873 77.7437 147.149H83.3817C83.3817 138.05 90.6107 129.465 99.5266 129.465C108.442 129.465 115.671 138.051 115.671 147.149H121.308Z" fill="#CFC7BE"/>
<path d="M121.32 174.624C121.32 177.196 119.19 179.281 116.561 179.281H82.4561C79.829 179.281 77.6978 177.196 77.6978 174.624V147.066C77.6978 144.493 121.32 144.493 121.32 147.066V174.624Z" fill="#F4E028"/>
<path d="M104.551 158.231C104.551 155.546 102.376 153.37 99.6907 153.37C97.0053 153.37 94.8271 155.546 94.8271 158.231C94.8271 160.279 96.0961 162.028 97.8869 162.744V167.228C97.8869 168.178 98.6588 168.949 99.6098 168.949C100.56 168.949 101.331 168.177 101.331 167.228V162.803C103.207 162.13 104.551 160.339 104.551 158.231Z" fill="#DAC425"/>
<path d="M94.6465 158.231C94.6465 155.546 96.8228 153.37 99.51 153.37C99.51 153.37 96.1212 155.629 96.1212 158.315C96.1212 161.049 98.6788 162.67 98.6788 162.67V167.278C98.6788 168.23 99.5899 168.95 99.5899 168.95C98.6379 168.95 97.8685 168.178 97.8685 167.229V162.804C95.9918 162.13 94.6465 160.339 94.6465 158.231Z" fill="#D0B82B"/>
<path d="M113.385 179.28H107.307V145.249L113.385 145.552V179.28Z" fill="#F8E349"/>
<path d="M107.307 125.338V131.791C109.816 133.381 111.918 135.684 113.385 138.373V129.283C111.582 127.639 109.531 126.296 107.307 125.338Z" fill="#E8E7E7"/>
</svg>
