<svg width="57" height="43" viewBox="0 0 57 43" fill="none" xmlns="http://www.w3.org/2000/svg">
<path d="M45.7373 37.529C53.0779 14.8262 34.3593 16.8203 24.0824 20.6553C23.7888 19.1213 22.2472 18.4821 21.5132 18.3543C22.6856 17.4968 24.3861 15.9995 25.7749 14.2336M45.7373 37.529C44.5262 40.2134 44.8564 39.9833 45.7373 37.529ZM22.9814 41.3639L22.2474 41.7474C19.3111 42.6678 19.3111 40.8526 19.6781 39.83C20.2898 39.83 21.66 38.9096 22.2474 35.228C18.577 27.1747 16.7417 25.2572 12.7044 26.0242C8.66701 26.7912 9.40108 23.3397 9.40108 22.9562C9.40108 22.6494 10.1351 22.5727 10.5022 22.5727C11.3831 17.9708 15.5183 16.8203 17.4758 16.8203C18.063 17.1271 24.8165 11.0679 28.1197 8C28.4256 10.0773 27.2844 12.3141 25.7749 14.2336M22.9814 41.3639C22.6144 40.0856 23.4219 37.6057 29.588 37.9125C24.8166 32.9271 27.0188 26.0242 32.5243 25.2572M22.9814 41.3639C27.9731 42.2843 37.2957 41.8958 41.3331 41.5864M41.3331 41.5864C42.2835 41.8588 43.4856 41.6369 44.2693 41.3639C44.514 40.4691 44.93 38.3727 44.6363 37.1455C44.3427 35.9183 42.5565 35.8672 41.7001 35.995C40.966 36.3785 40.1585 36.3785 39.8649 39.4465C39.8649 40.7336 40.503 41.3485 41.3331 41.5864ZM25.7749 14.2336C28.2694 12.9227 33.3317 10.0709 33.6254 9.15048C34.2126 11.298 29.955 14.6472 27.7528 16.0534C26.4859 16.4418 24.3165 16.6217 25.7749 14.2336ZM14.1726 20.6553C14.1726 21.2944 14.4663 22.266 15.6408 21.0388C15.7518 20.5749 15.7614 20.279 15.7171 20.0974C15.6444 19.7985 15.4259 19.8088 15.2737 19.8883C14.9067 19.7605 14.1726 19.7349 14.1726 20.6553Z" stroke="black"/>
<path d="M18.0466 16L27.0765 2L32.1804 10.1667C31.5522 10.7889 28.2543 12.7593 26.6839 13.6667C27.4691 11.9815 28.804 8.45555 27.8617 7.83333C22.2082 13.7444 18.9627 15.7407 18.0466 16Z" fill="black" stroke="black"/>
<path d="M22.3953 18.25L25.6569 15.1974C25.5361 15.8333 25.8743 16.9526 28.1937 16.3421C30.5131 15.7316 32.7842 12.5263 33.6298 11L37.9786 17.8684C37.6162 17.4868 27.4689 17.8684 24.5697 20.1579C25.1495 18.9368 23.3617 18.3772 22.3953 18.25Z" fill="black"/>
<path d="M47.4011 33.1316C47.0387 34.5307 46.024 37.8632 44.8643 40H51.75L47.4011 33.1316Z" fill="black"/>
<path d="M22.3953 18.25L25.6569 15.1974C25.5361 15.8333 25.8743 16.9526 28.1937 16.3421C30.5131 15.7316 32.7842 12.5263 33.6298 11L37.9786 17.8684C37.6162 17.4868 27.4689 17.8684 24.5697 20.1579C25.1495 18.9368 23.3617 18.3772 22.3953 18.25Z" stroke="black"/>
<path d="M47.4011 33.1316C47.0387 34.5307 46.024 37.8632 44.8643 40H51.75L47.4011 33.1316Z" stroke="black"/>
<path d="M35.4419 14L38.7035 19" stroke="black"/>
<path d="M12.0905 26.4757L5 40H18.8265C19.6537 39.6871 21.3082 38.3989 21.3082 35.7495C18.1883 25.5483 13.8631 25.3165 12.0905 26.4757Z" fill="black" stroke="black"/>
<ellipse cx="15.3283" cy="20.5" rx="1.63082" ry="1.5" fill="black"/>
</svg>
