<svg width="100" height="100" viewBox="0 0 100 100" fill="none" xmlns="http://www.w3.org/2000/svg">
<path d="M50 100C77.6142 100 100 77.6142 100 50C100 22.3858 77.6142 0 50 0C22.3858 0 0 22.3858 0 50C0 77.6142 22.3858 100 50 100Z" fill="#65A2D9"/>
<path d="M76.7606 27.2122C71.5451 31.7374 66.3596 35.7034 62.1211 41.2457C51.6951 53.8184 38.9545 71.6559 21.616 68.9969L52.5945 99.9336C78.8555 98.5913 99.7619 76.9858 99.9942 50.4461L76.7606 27.2122Z" fill="#3A7CA5"/>
<path d="M77.7094 31.7326C76.4373 32.2968 75.1174 32.7417 73.7625 33.0636C75.2555 31.6455 76.3778 29.871 77.0108 27.891C77.1916 27.3259 76.5774 26.8367 76.067 27.1394C74.1822 28.2576 72.1522 29.0957 70.033 29.632C69.9104 29.6632 69.7838 29.6789 69.6563 29.6789C69.2697 29.6789 68.8953 29.5357 68.5994 29.2755C66.3451 27.2884 63.4451 26.1941 60.4344 26.1941C59.1313 26.1941 57.8162 26.3972 56.525 26.7978C52.5236 28.0386 49.4361 31.3396 48.467 35.4117C48.1037 36.9386 48.0057 38.4679 48.1748 39.9554C48.1938 40.1265 48.1135 40.2457 48.0637 40.3015C47.9758 40.3996 47.852 40.456 47.7229 40.456C47.7088 40.456 47.6936 40.4554 47.6791 40.4541C38.9201 39.64 31.0215 35.4205 25.4391 28.5718C25.1549 28.2224 24.6084 28.2654 24.3815 28.6542C23.2885 30.5304 22.7108 32.6755 22.7108 34.8585C22.7108 38.2037 24.0553 41.3566 26.3899 43.6552C25.408 43.4222 24.4576 43.0556 23.5746 42.565C23.1473 42.3279 22.6221 42.6333 22.616 43.1218C22.5555 48.0916 25.4653 52.5138 29.824 54.505C29.7361 54.507 29.6483 54.5078 29.5604 54.5078C28.8695 54.5078 28.1695 54.4417 27.4813 54.3095C27.0002 54.2183 26.5961 54.6742 26.7453 55.1402C28.1606 59.5578 31.9635 62.8136 36.5151 63.5523C32.7379 66.088 28.3387 67.4253 23.7608 67.4253L22.3338 67.4248C21.8934 67.4248 21.5213 67.7117 21.41 68.1376C21.2996 68.5566 21.5026 68.9996 21.8779 69.2177C27.0365 72.2201 32.9211 73.8066 38.8971 73.8066C44.1283 73.8066 49.0217 72.7689 53.4412 70.721C57.493 68.8443 61.0733 66.1615 64.083 62.747C66.8871 59.5662 69.0793 55.8945 70.5996 51.8332C72.0485 47.9628 72.8145 43.8318 72.8145 39.889V39.7007C72.8145 39.0677 73.1006 38.472 73.6004 38.066C75.4961 36.5265 77.1473 34.7148 78.507 32.6808C78.8664 32.1441 78.3 31.4707 77.7094 31.7326Z" fill="white"/>
<path d="M77.7094 31.7326C76.4369 32.2968 75.1174 32.7417 73.7625 33.0636C75.2555 31.6455 76.3777 29.871 77.0109 27.891C77.1918 27.3259 76.5775 26.8367 76.0672 27.1394C74.1824 28.2576 72.1524 29.0957 70.0332 29.632C69.9106 29.6632 69.784 29.6789 69.6565 29.6789C69.2699 29.6789 68.8955 29.5357 68.5996 29.2755C66.3453 27.2884 63.4453 26.1941 60.4346 26.1941C59.1317 26.1941 57.8164 26.3972 56.5252 26.7978C53.7279 27.6652 51.3801 29.5416 49.8875 31.9826V72.1148C51.1027 71.7185 52.2885 71.2548 53.4418 70.7205C57.4936 68.8437 61.0738 66.1609 64.0836 62.7464C66.8877 59.5654 69.0799 55.8939 70.6002 51.8326C72.049 47.9623 72.815 43.8312 72.815 39.8884V39.7001C72.815 39.0671 73.1012 38.4714 73.601 38.0654C75.4967 36.5259 77.1479 34.7142 78.5076 32.6802C78.8664 32.1441 78.3 31.4707 77.7094 31.7326Z" fill="#D1D1D1"/>
</svg>
